<svg xmlns="http://www.w3.org/2000/svg" width="571.6" height="517"><rect width="100%" height="100%" fill="#1e1e1e"/><defs>
<marker id="cls-triangle" viewBox="0 0 10 10" refX="10" refY="5" markerWidth="10" markerHeight="10" orient="auto-start-reverse">
<path d="M 0 0 L 10 5 L 0 10 z" fill="white" stroke="#ff8800" stroke-width="1"/>
</marker>
<marker id="cls-arrow" viewBox="0 0 10 10" refX="10" refY="5" markerWidth="8" markerHeight="8" orient="auto-start-reverse">
<path d="M 0 0 L 10 5 L 0 10 z" fill="#ff8800"/>
</marker>
<marker id="cls-diamond-filled" viewBox="0 0 12 12" refX="12" refY="6" markerWidth="12" markerHeight="12" orient="auto-start-reverse">
<path d="M 0 6 L 6 0 L 12 6 L 6 12 z" fill="#ff8800"/>
</marker>
<marker id="cls-diamond-empty" viewBox="0 0 12 12" refX="12" refY="6" markerWidth="12" markerHeight="12" orient="auto-start-reverse">
<path d="M 0 6 L 6 0 L 12 6 L 6 12 z" fill="white" stroke="#ff8800" stroke-width="1"/>
</marker>
</defs><polyline points="145,191 145,151 338.40002,151 338.40002,111" fill="none" stroke="#ff8800" stroke-width="1.5" marker-end="url(#cls-triangle)"/><polyline points="430.8,191 430.8,151 338.40002,151 338.40002,111" fill="none" stroke="#ff8800" stroke-width="1.5" marker-end="url(#cls-triangle)"/><polyline points="145,191 145,146 119.8,146 119.8,101" fill="none" stroke="#ff8800" stroke-width="1.5" stroke-dasharray="5,5" marker-end="url(#cls-triangle)"/><polyline points="430.8,191 430.8,146 119.8,146 119.8,101" fill="none" stroke="#ff8800" stroke-width="1.5" stroke-dasharray="5,5" marker-end="url(#cls-triangle)"/><polyline points="260,249.5 275,249.5 275,502 15,502 15,437.5 30,437.5" fill="none" stroke="#ff8800" stroke-width="1.5" marker-start="url(#cls-diamond-empty)"/><polyline points="320,240.5 305,240.5 305,484 497.80005,484 497.80005,428.5 482.80005,428.5" fill="none" stroke="#ff8800" stroke-width="1.5" marker-start="url(#cls-diamond-filled)"/><rect x="30" y="388" width="238.40001" height="99" fill="#2d2d2d" stroke="#555555" stroke-width="1"/><text x="149.20001" y="404.5" font-family="momo_trust" font-size="14" fill="#e0e0e0" text-anchor="middle" font-weight="bold">Inventory</text><line x1="30" y1="413" x2="268.40002" y2="413" stroke="#555555" stroke-width="1"/><text x="40" y="435" font-family="momo_trust" font-size="14" fill="#e0e0e0">-items: Vec&lt;Item&gt;</text><line x1="30" y1="439" x2="268.40002" y2="439" stroke="#555555" stroke-width="1"/><text x="40" y="461" font-family="momo_trust" font-size="14" fill="#e0e0e0">+add_item(item: Item)</text><text x="40" y="479" font-family="momo_trust" font-size="14" fill="#e0e0e0">+remove_item(index: usize)</text><rect x="328.40002" y="388" width="154.40001" height="81" fill="#2d2d2d" stroke="#555555" stroke-width="1"/><text x="405.60004" y="404.5" font-family="momo_trust" font-size="14" fill="#e0e0e0" text-anchor="middle" font-weight="bold">AIController</text><line x1="328.40002" y1="413" x2="482.80005" y2="413" stroke="#555555" stroke-width="1"/><text x="338.40002" y="435" font-family="momo_trust" font-size="14" fill="#e0e0e0">-state: AIState</text><line x1="328.40002" y1="439" x2="482.80005" y2="439" stroke="#555555" stroke-width="1"/><text x="338.40002" y="461" font-family="momo_trust" font-size="14" fill="#e0e0e0">+update(dt: f32)</text><rect x="30" y="191" width="230.00002" height="117" fill="#2d2d2d" stroke="#555555" stroke-width="1"/><text x="145" y="207.5" font-family="momo_trust" font-size="14" fill="#e0e0e0" text-anchor="middle" font-weight="bold">Player</text><line x1="30" y1="216" x2="260" y2="216" stroke="#555555" stroke-width="1"/><text x="40" y="238" font-family="momo_trust" font-size="14" fill="#e0e0e0">-name: String</text><text x="40" y="256" font-family="momo_trust" font-size="14" fill="#e0e0e0">-health: i32</text><line x1="30" y1="260" x2="260" y2="260" stroke="#555555" stroke-width="1"/><text x="40" y="282" font-family="momo_trust" font-size="14" fill="#e0e0e0">+take_damage(amount: i32)</text><text x="40" y="300" font-family="momo_trust" font-size="14" fill="#e0e0e0">+heal(amount: i32)</text><rect x="30" y="30" width="179.6" height="71" fill="#E8F4E8" stroke="#555555" stroke-width="1"/><text x="119.8" y="46.5" font-family="momo_trust" font-size="14" fill="#e0e0e0" text-anchor="middle" font-weight="bold" font-style="italic">Renderable</text><line x1="30" y1="55" x2="209.6" y2="55" stroke="#555555" stroke-width="1"/><text x="40" y="77" font-family="momo_trust" font-size="14" fill="#e0e0e0">+render(&amp;self)</text><text x="40" y="95" font-family="momo_trust" font-size="14" fill="#e0e0e0">+get_bounds(): Rect</text><rect x="269.6" y="30" width="137.6" height="81" fill="#2d2d2d" stroke="#555555" stroke-width="1"/><text x="338.40002" y="46.5" font-family="momo_trust" font-size="14" fill="#e0e0e0" text-anchor="middle" font-weight="bold" font-style="italic">Entity</text><line x1="269.6" y1="55" x2="407.2" y2="55" stroke="#555555" stroke-width="1"/><text x="279.6" y="77" font-family="momo_trust" font-size="14" fill="#e0e0e0">-id: u64</text><line x1="269.6" y1="81" x2="407.2" y2="81" stroke="#555555" stroke-width="1"/><text x="279.6" y="103" font-family="momo_trust" font-size="14" fill="#e0e0e0">+get_id(): u64</text><rect x="320" y="191" width="221.6" height="99" fill="#2d2d2d" stroke="#555555" stroke-width="1"/><text x="430.8" y="207.5" font-family="momo_trust" font-size="14" fill="#e0e0e0" text-anchor="middle" font-weight="bold">Enemy</text><line x1="320" y1="216" x2="541.6" y2="216" stroke="#555555" stroke-width="1"/><text x="330" y="238" font-family="momo_trust" font-size="14" fill="#e0e0e0">-damage: i32</text><text x="330" y="256" font-family="momo_trust" font-size="14" fill="#e0e0e0">-speed: f32</text><line x1="320" y1="260" x2="541.6" y2="260" stroke="#555555" stroke-width="1"/><text x="330" y="282" font-family="momo_trust" font-size="14" fill="#e0e0e0">+attack(target: &amp;Player)</text></svg>