<svg xmlns="http://www.w3.org/2000/svg" width="467.2" height="530"><rect width="100%" height="100%" fill="#1e1e1e"/><defs>
<marker id="seq-arrow" markerWidth="10" markerHeight="7" refX="9" refY="3.5" orient="auto">
<polygon points="0 0, 10 3.5, 0 7" fill="#00ccff"/>
</marker>
<marker id="seq-arrow-open" markerWidth="10" markerHeight="7" refX="9" refY="3.5" orient="auto">
<polyline points="0 0, 10 3.5, 0 7" fill="none" stroke="#00ccff" stroke-width="1.5"/>
</marker>
</defs><line x1="75.2" y1="65" x2="75.2" y2="465" stroke="#444444" stroke-width="1" stroke-dasharray="5,5"/><line x1="225.2" y1="65" x2="225.2" y2="465" stroke="#444444" stroke-width="1" stroke-dasharray="5,5"/><line x1="383.6" y1="65" x2="383.6" y2="465" stroke="#444444" stroke-width="1" stroke-dasharray="5,5"/><rect x="29.999996" y="30" width="90.4" height="35" fill="#2d2d2d" stroke="#555555" stroke-width="1"/><text x="75.2" y="51.5" font-family="momo_trust" font-size="14" fill="#e0e0e0" text-anchor="middle">Client</text><rect x="29.999996" y="465" width="90.4" height="35" fill="#2d2d2d" stroke="#555555" stroke-width="1"/><text x="75.2" y="486.5" font-family="momo_trust" font-size="14" fill="#e0e0e0" text-anchor="middle">Client</text><rect x="180" y="30" width="90.4" height="35" fill="#2d2d2d" stroke="#555555" stroke-width="1"/><text x="225.2" y="51.5" font-family="momo_trust" font-size="14" fill="#e0e0e0" text-anchor="middle">Server</text><rect x="180" y="465" width="90.4" height="35" fill="#2d2d2d" stroke="#555555" stroke-width="1"/><text x="225.2" y="486.5" font-family="momo_trust" font-size="14" fill="#e0e0e0" text-anchor="middle">Server</text><rect x="330" y="30" width="107.200005" height="35" fill="#2d2d2d" stroke="#555555" stroke-width="1"/><text x="383.6" y="51.5" font-family="momo_trust" font-size="14" fill="#e0e0e0" text-anchor="middle">Database</text><rect x="330" y="465" width="107.200005" height="35" fill="#2d2d2d" stroke="#555555" stroke-width="1"/><text x="383.6" y="486.5" font-family="momo_trust" font-size="14" fill="#e0e0e0" text-anchor="middle">Database</text><polyline points="75.2,95 225.2,95" fill="none" stroke="#00ccff" stroke-width="2" marker-end="url(#seq-arrow)"/><text x="150.2" y="90" font-family="momo_trust" font-size="14" fill="#e0e0e0" text-anchor="middle">HTTP Request</text><polyline points="225.2,135 383.6,135" fill="none" stroke="#00ccff" stroke-width="2" marker-end="url(#seq-arrow)"/><text x="304.4" y="130" font-family="momo_trust" font-size="14" fill="#e0e0e0" text-anchor="middle">Query</text><polyline points="383.6,175 225.2,175" fill="none" stroke="#00ccff" stroke-width="2" stroke-dasharray="5,5" marker-end="url(#seq-arrow)"/><text x="304.4" y="170" font-family="momo_trust" font-size="14" fill="#e0e0e0" text-anchor="middle">Result</text><polyline points="225.2,215 75.2,215" fill="none" stroke="#00ccff" stroke-width="2" stroke-dasharray="5,5" marker-end="url(#seq-arrow)"/><text x="150.2" y="210" font-family="momo_trust" font-size="14" fill="#e0e0e0" text-anchor="middle">HTTP Response</text><text x="24.999996" y="270" font-family="momo_trust" font-size="14" fill="#e0e0e0" font-weight="bold">[Success]</text><polyline points="75.2,295 105.2,295 105.2,315 75.2,315" fill="none" stroke="#00ccff" stroke-width="2" marker-end="url(#seq-arrow)"/><text x="110.2" y="309" font-family="momo_trust" font-size="14" fill="#e0e0e0">Display Data</text><line x1="19.999996" y1="335" x2="447.2" y2="335" stroke="#999999" stroke-width="1" stroke-dasharray="5,5"/><text x="24.999996" y="350" font-family="momo_trust" font-size="14" fill="#e0e0e0">[Failure]</text><polyline points="75.2,355 105.2,355 105.2,375 75.2,375" fill="none" stroke="#00ccff" stroke-width="2" marker-end="url(#seq-arrow)"/><text x="110.2" y="369" font-family="momo_trust" font-size="14" fill="#e0e0e0">Show Error</text><rect x="19.999996" y="255" width="427.2" height="140" fill="none" stroke="#999999" stroke-width="1"/><polygon points="19.999996,255 49.999996,255 59.999996,270 19.999996,270" fill="#FAFAFA" stroke="#999999"/><text x="24.999996" y="266" font-family="momo_trust" font-size="10" fill="#e0e0e0">alt</text></svg>